<svg width="62" height="63" viewBox="0 0 62 63" fill="none" xmlns="http://www.w3.org/2000/svg">
<g clip-path="url(#clip0_3_575)">
<path d="M14.5693 21.2286H2.63254C2.11385 21.2286 1.69334 20.8081 1.69334 20.2894V17.6544C1.69334 13.8394 4.78604 10.7467 8.60104 10.7467C12.416 10.7467 15.5087 13.8394 15.5087 17.6544V20.2894C15.5085 20.8081 15.0881 21.2286 14.5693 21.2286Z" fill="#C3DA40"/>
<path d="M21.5759 44.6172C20.2377 43.7337 19.3781 42.721 19.0206 41.6069C16.7683 40.6505 15.3144 38.4125 15.3144 35.8974C15.3144 32.4937 17.9968 29.7244 21.294 29.7244H28.9042C32.2014 29.7244 34.8838 32.4937 34.8838 35.8974C34.8838 39.3012 32.2015 42.0704 28.9042 42.0704H23.0029C22.9522 42.5798 22.9727 43.1101 23.0639 43.6474L23.3374 45.2605C23.3751 45.4828 23.1296 45.6428 22.9415 45.5186L21.5759 44.6172Z" fill="#FF62A7"/>
<path d="M34.8832 35.8976C34.8832 32.4938 32.2008 29.7245 28.9036 29.7245H21.2934C20.4351 29.7245 19.6193 29.9136 18.8808 30.2513C19.1986 35.3616 23.5396 39.3534 28.7137 39.3534H33.8558C34.5041 38.3666 34.8832 37.177 34.8832 35.8976Z" fill="#FC5479"/>
<path d="M37.2651 40.2189C37.4556 39.399 37.5111 38.5942 37.4307 37.8261H30.042C25.8871 37.8261 22.4197 34.5267 22.3565 30.3721C22.292 26.1436 25.713 22.683 29.927 22.683H39.4782C43.6419 22.683 47.1064 26.0001 47.1551 30.1637C47.1919 33.2884 45.3399 36.0778 42.4554 37.2608C41.8344 39.1412 40.068 40.4817 38.692 41.2763L37.2744 42.0948C37.0793 42.2076 36.8437 42.033 36.8946 41.8135L37.2651 40.2189Z" fill="#31D2F7"/>
<path d="M28.5451 32.4289C28.4806 28.2002 31.9017 24.7398 36.1157 24.7398H44.7276C43.3475 23.4633 41.4957 22.683 39.4782 22.683H29.927C25.713 22.683 22.292 26.1436 22.3565 30.3721C22.4199 34.5266 25.8871 37.8261 30.042 37.8261H30.9755C29.5121 36.4743 28.5778 34.5654 28.5451 32.4289Z" fill="#13ACE8"/>
<path d="M59.3116 21.2286H47.3749C46.8562 21.2286 46.4357 20.8081 46.4357 20.2895V17.6545C46.4357 13.8395 49.5284 10.7468 53.3433 10.7468C57.1583 10.7468 60.251 13.8395 60.251 17.6545V20.2895C60.2508 20.8081 59.8303 21.2286 59.3116 21.2286Z" fill="#FFCF59"/>
<path d="M14.5693 58.1262H2.63254C2.11385 58.1262 1.69334 57.7057 1.69334 57.1868V54.5519C1.69334 50.7369 4.78604 47.6442 8.60104 47.6442C12.416 47.6442 15.5087 50.7369 15.5087 54.5519V57.1868C15.5085 57.7055 15.0881 58.1262 14.5693 58.1262Z" fill="#FF62A7"/>
<path d="M59.3116 58.1262H47.3749C46.8562 58.1262 46.4357 57.7057 46.4357 57.1868V54.5519C46.4357 50.7369 49.5284 47.6442 53.3433 47.6442C57.1583 47.6442 60.251 50.7369 60.251 54.5519V57.1868C60.2508 57.7055 59.8303 58.1262 59.3116 58.1262Z" fill="#31D2F7"/>
<path d="M7.00149 20.2894V17.6544C7.00149 14.78 8.75755 12.3164 11.2551 11.2759C10.4379 10.9355 9.54156 10.7467 8.60104 10.7467C4.78604 10.7467 1.69334 13.8394 1.69334 17.6544V20.2894C1.69334 20.8081 2.11385 21.2286 2.63266 21.2286H7.94069C7.422 21.2286 7.00149 20.8081 7.00149 20.2894Z" fill="#ADBC15"/>
<path d="M51.7438 20.2895V17.6545C51.7438 14.7801 53.4999 12.3165 55.9974 11.276C55.1802 10.9355 54.2839 10.7468 53.3433 10.7468C49.5283 10.7468 46.4357 13.8395 46.4357 17.6545V20.2895C46.4357 20.8081 46.8562 21.2286 47.375 21.2286H52.683C52.1643 21.2286 51.7438 20.8081 51.7438 20.2895Z" fill="#FFB55C"/>
<path d="M7.00149 57.1867V54.5517C7.00149 51.6774 8.75755 49.2136 11.2551 48.1732C10.4379 47.8328 9.54156 47.644 8.60104 47.644C4.78604 47.644 1.69334 50.7367 1.69334 54.5517V57.1867C1.69334 57.7054 2.11385 58.126 2.63266 58.126H7.94069C7.422 58.1262 7.00149 57.7055 7.00149 57.1867Z" fill="#FC5479"/>
<path d="M51.7438 57.1867V54.5517C51.7438 51.6774 53.4999 49.2136 55.9974 48.1732C55.1802 47.8328 54.2839 47.644 53.3433 47.644C49.5283 47.644 46.4357 50.7367 46.4357 54.5517V57.1867C46.4357 57.7054 46.8562 58.126 47.375 58.126H52.683C52.1643 58.1262 51.7438 57.7055 51.7438 57.1867Z" fill="#13ACE8"/>
<path d="M29.2782 62.7313C29.259 62.7313 29.2397 62.7309 29.2203 62.7296C28.025 62.6618 26.8239 62.5235 25.65 62.3186C25.1027 62.223 24.7365 61.7019 24.8321 61.1546C24.9277 60.6073 25.4478 60.2409 25.9961 60.3367C27.0934 60.5282 28.2165 60.6575 29.3343 60.7209C29.889 60.7523 30.3131 61.2276 30.2817 61.7822C30.2512 62.3176 29.8076 62.7313 29.2782 62.7313ZM32.7536 62.7295C32.2245 62.7295 31.7812 62.3165 31.7503 61.7817C31.7181 61.2271 32.1418 60.7515 32.6963 60.7195C33.814 60.6548 34.9372 60.5243 36.0346 60.3317C36.5814 60.2353 37.1032 60.6013 37.1992 61.1485C37.2955 61.6958 36.9297 62.2171 36.3825 62.3132C35.2088 62.5194 34.0077 62.659 32.8126 62.7281C32.793 62.729 32.7733 62.7295 32.7536 62.7295ZM22.4387 61.5371C22.3434 61.5371 22.2467 61.5234 22.1508 61.4948C21.0057 61.1533 19.8683 60.7401 18.77 60.2666C18.2599 60.0466 18.0246 59.4548 18.2446 58.9447C18.4646 58.4345 19.0565 58.1995 19.5665 58.4193C20.5928 58.8618 21.6558 59.2478 22.7257 59.5671C23.2581 59.726 23.561 60.2862 23.4022 60.8186C23.2721 61.2547 22.872 61.5371 22.4387 61.5371ZM39.5923 61.528C39.1594 61.528 38.7596 61.2463 38.629 60.8103C38.4696 60.2781 38.7718 59.7174 39.3041 59.5581C40.3731 59.2381 41.4351 58.851 42.4606 58.4075C42.9707 58.187 43.5627 58.4217 43.7831 58.9316C44.0038 59.4414 43.769 60.0337 43.2591 60.2541C42.1617 60.7285 41.0253 61.1428 39.8812 61.4854C39.7849 61.5141 39.6878 61.528 39.5923 61.528ZM2.8954 43.1285C2.48468 43.1285 2.09931 42.8754 1.95041 42.4673C1.54065 41.3452 1.19321 40.1866 0.917255 39.0236C0.789122 38.4831 1.1234 37.9409 1.66395 37.8126C2.20571 37.6845 2.74674 38.0187 2.87499 38.5593C3.13259 39.6461 3.45745 40.7287 3.84027 41.7771C4.03084 42.2989 3.76226 42.8766 3.24031 43.067C3.12655 43.1088 3.01001 43.1285 2.8954 43.1285ZM59.1149 43.1006C59.0006 43.1006 58.8846 43.081 58.7709 43.0397C58.2489 42.8498 57.9797 42.2725 58.1695 41.7504C58.5516 40.7005 58.8753 39.6167 59.132 38.5297C59.2597 37.9888 59.8023 37.6543 60.3422 37.7818C60.8829 37.9093 61.2178 38.4512 61.0902 38.9919C60.8156 40.1553 60.4691 41.3149 60.0601 42.4385C59.9117 42.8467 59.5257 43.1006 59.1149 43.1006ZM1.29151 36.3731C0.788156 36.3731 0.353398 35.9958 0.29374 35.4836C0.155704 34.301 0.0851772 33.0943 0.0839695 31.8968C0.0834864 31.3412 0.53334 30.8904 1.08886 30.8898C1.08923 30.8898 1.08959 30.8898 1.08995 30.8898C1.64511 30.8898 2.09533 31.3395 2.09581 31.8947C2.09702 33.0153 2.16284 34.1442 2.29181 35.2504C2.3563 35.8022 1.96116 36.3018 1.40926 36.3662C1.36989 36.3709 1.3304 36.3731 1.29151 36.3731ZM60.7122 36.3414C60.6736 36.3414 60.6347 36.3393 60.5953 36.3347C60.0436 36.2709 59.6478 35.7718 59.7117 35.2199C59.8396 34.1135 59.9043 32.9845 59.9043 31.864V31.8004C59.9043 31.2449 60.3546 30.7945 60.9102 30.7945C61.4657 30.7945 61.916 31.2449 61.916 31.8004V31.864C61.916 33.0613 61.8467 34.2682 61.71 35.4509C61.651 35.9636 61.2161 36.3414 60.7122 36.3414ZM1.28692 29.4305C1.24864 29.4305 1.21011 29.4283 1.1711 29.4238C0.619084 29.3607 0.222971 28.862 0.286253 28.31C0.422235 27.1219 0.62959 25.9304 0.90228 24.7688C1.02933 24.2278 1.57096 23.892 2.11175 24.0194C2.65266 24.1464 2.98803 24.6879 2.8611 25.2287C2.60605 26.3145 2.41234 27.4282 2.28517 28.5389C2.22636 29.0518 1.79124 29.4305 1.28692 29.4305ZM60.7023 29.3357C60.1993 29.3357 59.7649 28.959 59.7047 28.4472C59.574 27.337 59.3767 26.224 59.1182 25.1388C58.9895 24.5984 59.3232 24.0558 59.8636 23.927C60.404 23.7981 60.9465 24.132 61.0754 24.6724C61.3519 25.8335 61.563 27.0242 61.7028 28.2118C61.7677 28.7636 61.3731 29.2635 60.8214 29.3284C60.7813 29.3334 60.7416 29.3357 60.7023 29.3357ZM16.0095 6.98249C15.6627 6.98249 15.3252 6.80292 15.1387 6.48132C14.8597 6.00079 15.0231 5.38512 15.5037 5.10639C16.5372 4.50655 17.6163 3.96177 18.7112 3.48704C19.2208 3.26604 19.8133 3.50009 20.0341 4.00972C20.2553 4.51935 20.0212 5.11183 19.5115 5.33283C18.4883 5.77652 17.4797 6.28579 16.5137 6.84639C16.3547 6.93866 16.1809 6.98249 16.0095 6.98249ZM45.912 6.93721C45.7416 6.93721 45.5689 6.89385 45.4106 6.80267C44.4418 6.24437 43.4307 5.73788 42.4054 5.29708C41.8951 5.07765 41.6591 4.48602 41.8784 3.97566C42.0977 3.46531 42.6892 3.22885 43.1998 3.44876C44.297 3.92035 45.3787 4.46223 46.4151 5.05954C46.8965 5.33694 47.0617 5.952 46.7844 6.43337C46.5983 6.75642 46.2599 6.93721 45.912 6.93721ZM22.3769 4.2219C21.9444 4.2219 21.5449 3.94076 21.4139 3.50528C21.2539 2.97318 21.5556 2.41223 22.0877 2.25233C23.2311 1.90863 24.4079 1.62894 25.5853 1.42086C26.1328 1.32437 26.6542 1.68932 26.7509 2.23651C26.8476 2.78358 26.4824 3.30541 25.9353 3.40214C24.835 3.59646 23.7353 3.85792 22.6668 4.17915C22.5704 4.20814 22.4727 4.2219 22.3769 4.2219ZM39.5319 4.19437C39.437 4.19437 39.3408 4.18096 39.245 4.15246C38.1751 3.83473 37.0747 3.57689 35.9741 3.38608C35.4266 3.29116 35.0597 2.77054 35.1548 2.22311C35.2497 1.67567 35.7708 1.30903 36.3177 1.40383C37.4955 1.60792 38.6729 1.884 39.8179 2.22395C40.3505 2.38216 40.654 2.94215 40.4958 3.4746C40.3661 3.91166 39.9657 4.19437 39.5319 4.19437ZM29.213 3.01231C28.6844 3.01231 28.2412 2.60002 28.2096 2.06563C28.1769 1.51107 28.6001 1.03489 29.1546 1.00228C29.7647 0.966174 30.3845 0.948059 30.9968 0.948059C30.998 0.948059 30.999 0.948059 31.0002 0.948059C31.5817 0.948059 32.1696 0.964362 32.7472 0.996728C33.3019 1.02776 33.7265 1.50237 33.6954 2.05717C33.6646 2.61185 33.1926 3.03719 32.635 3.00543C32.0946 2.97536 31.5444 2.9599 30.9999 2.9599C30.999 2.9599 30.998 2.9599 30.9969 2.9599C30.4239 2.9599 29.8438 2.97693 29.2729 3.01062C29.2529 3.01183 29.2328 3.01231 29.213 3.01231Z" fill="#FFCF59"/>
<path d="M8.54075 14.6794C6.07253 14.6794 4.06444 12.6713 4.06444 10.2029C4.06444 7.7346 6.07253 5.7265 8.54075 5.7265C11.0091 5.7265 13.0172 7.7346 13.0172 10.2029C13.0172 12.6713 11.0091 14.6794 8.54075 14.6794Z" fill="#FAD393"/>
<path d="M53.2829 14.6794C50.8147 14.6794 48.8066 12.6713 48.8066 10.2029C48.8066 7.7346 50.8147 5.7265 53.2829 5.7265C55.7513 5.7265 57.7594 7.7346 57.7594 10.2029C57.7594 12.6713 55.7513 14.6794 53.2829 14.6794Z" fill="#FAD393"/>
<path d="M8.54075 51.5769C6.07253 51.5769 4.06444 49.5687 4.06444 47.1005C4.06444 44.6322 6.07253 42.624 8.54075 42.624C11.0091 42.624 13.0172 44.6321 13.0172 47.1005C13.0172 49.5688 11.0091 51.5769 8.54075 51.5769Z" fill="#FAD393"/>
<path d="M53.2829 51.5769C50.8147 51.5769 48.8066 49.5687 48.8066 47.1005C48.8066 44.6322 50.8147 42.624 53.2829 42.624C55.7513 42.624 57.7594 44.6321 57.7594 47.1005C57.7594 49.5688 55.7513 51.5769 53.2829 51.5769Z" fill="#FAD393"/>
<path d="M8.29209 10.2031C8.29209 8.49881 9.24952 7.01435 10.6546 6.25835C10.0247 5.91949 9.30484 5.7265 8.54075 5.7265C6.07253 5.7265 4.06444 7.7346 4.06444 10.2029C4.06444 12.6713 6.07253 14.6794 8.54075 14.6794C9.30484 14.6794 10.0246 14.4865 10.6546 14.1475C9.24952 13.3916 8.29209 11.9072 8.29209 10.2031Z" fill="#EDB769"/>
<path d="M53.0343 10.2031C53.0343 8.49881 53.9917 7.01435 55.3968 6.25835C54.7668 5.91949 54.047 5.7265 53.2829 5.7265C50.8147 5.7265 48.8066 7.7346 48.8066 10.2029C48.8066 12.6713 50.8147 14.6794 53.2829 14.6794C54.047 14.6794 54.7668 14.4865 55.3968 14.1475C53.9918 13.3916 53.0343 11.9072 53.0343 10.2031Z" fill="#EDB769"/>
<path d="M8.29209 47.1005C8.29209 45.3962 9.24952 43.9117 10.6546 43.1558C10.0247 42.8169 9.30484 42.6239 8.54075 42.6239C6.07253 42.6239 4.06444 44.632 4.06444 47.1003C4.06444 49.5687 6.07253 51.5768 8.54075 51.5768C9.30484 51.5768 10.0246 51.3839 10.6546 51.0449C9.24952 50.2892 8.29209 48.8047 8.29209 47.1005Z" fill="#EDB769"/>
<path d="M53.0343 47.1005C53.0343 45.3962 53.9917 43.9117 55.3968 43.1558C54.7668 42.8169 54.047 42.6239 53.2829 42.6239C50.8147 42.6239 48.8066 44.632 48.8066 47.1003C48.8066 49.5687 50.8147 51.5768 53.2829 51.5768C54.047 51.5768 54.7668 51.3839 55.3968 51.0449C53.9918 50.2892 53.0343 48.8047 53.0343 47.1005Z" fill="#EDB769"/>
</g>
<defs>
<clipPath id="clip0_3_575">
<rect width="61.8321" height="61.8321" fill="white" transform="translate(0.0839691 0.923645)"/>
</clipPath>
</defs>
</svg>
