<svg width="67" height="67" viewBox="0 0 67 67" fill="none" xmlns="http://www.w3.org/2000/svg">
<g clip-path="url(#clip0_3_603)">
<path d="M12.4316 23.5868L14.3553 20.2551L21.0187 24.1023L19.0951 27.434L12.4316 23.5868Z" fill="#F3F5F9"/>
<path d="M45.7441 42.8238L47.6678 39.4921L54.3312 43.3393L52.4076 46.671L45.7441 42.8238Z" fill="#E1E6F0"/>
<path d="M12.4336 43.328L19.097 39.4807L21.0207 42.8125L14.3572 46.6597L12.4336 43.328Z" fill="#F3F5F9"/>
<path d="M45.7422 24.0936L52.4056 20.2464L54.3293 23.5781L47.6658 27.4253L45.7422 24.0936Z" fill="#E1E6F0"/>
<path d="M31.459 10.2501H35.3056V18.0716H31.459V10.2501Z" fill="#F3F5F9"/>
<path d="M31.459 48.8445H35.3056V56.6659H31.459V48.8445Z" fill="#F3F5F9"/>
<path d="M29.0879 60.2552L12.4336 50.5105L14.3569 47.1785L31.0112 56.9233L29.0879 60.2552Z" fill="#F3F5F9"/>
<path d="M37.6804 60.3622L35.8398 56.9852L52.7776 47.6387L54.6184 51.0157L37.6804 60.3622Z" fill="#E1E6F0"/>
<path d="M54.5371 23.8415H58.3837V43.0821H54.5371V23.8415Z" fill="#E1E6F0"/>
<path d="M52.4065 19.7376L35.7522 9.99282L37.6755 6.66089L54.3298 16.4056L52.4065 19.7376Z" fill="#E1E6F0"/>
<path d="M14.3569 19.7376L12.4336 16.4056L29.0879 6.66089L31.0112 9.99282L14.3569 19.7376Z" fill="#F3F5F9"/>
<path d="M8.37891 23.8415H12.2255V43.0821H8.37891V23.8415Z" fill="#F3F5F9"/>
<path d="M7.17844 24.9928C4.42491 23.4019 3.47646 19.867 5.06549 17.1117C6.65633 14.3564 10.1893 13.406 12.9466 14.9968H12.9503C15.7038 16.5896 16.6503 20.1263 15.0595 22.8797C13.456 25.6566 9.92287 26.5768 7.17844 24.9928Z" fill="#66CCFF"/>
<path d="M53.8167 51.9191C51.0595 50.3263 50.1128 46.7896 51.7038 44.0362C53.2841 41.2996 56.7971 40.315 59.5849 41.9232C62.3384 43.5141 63.2868 47.049 61.6978 49.8043C60.1038 52.5636 56.5671 53.5054 53.8167 51.9191Z" fill="#59ABFF"/>
<path d="M5.06538 49.8061C3.47634 47.0488 4.42491 43.5141 7.17832 41.9232C9.92429 40.3352 13.4595 41.2635 15.0594 44.0381C16.6502 46.7897 15.7036 50.3264 12.9502 51.9192C10.2124 53.4949 6.6707 52.5822 5.06538 49.8061Z" fill="#66CCFF"/>
<path d="M51.7038 22.8779C50.113 20.1263 51.0597 16.5896 53.8131 14.9968H53.8168C56.5684 13.4041 60.1051 14.3564 61.6978 17.1098C63.2869 19.867 62.3383 23.4018 59.5849 24.9926C56.8119 26.5933 53.2903 25.6293 51.7038 22.8779Z" fill="#59ABFF"/>
<path d="M33.3809 10.2501H35.3042V18.0716H33.3809V10.2501Z" fill="#E1E6F0"/>
<path d="M33.3809 48.8445H35.3042V56.6659H33.3809V48.8445Z" fill="#E1E6F0"/>
<path d="M33.3812 12.1734C30.1996 12.1734 27.6113 9.58519 27.6113 6.40352C27.6113 3.22186 30.1996 0.633606 33.3812 0.633606C36.5629 0.633606 39.1512 3.22186 39.1512 6.40352C39.1512 9.58519 36.5629 12.1734 33.3812 12.1734Z" fill="#66CCFF"/>
<path d="M33.3812 66.2825C30.1996 66.2825 27.6113 63.6942 27.6113 60.5125C27.6113 57.3309 30.1996 54.7426 33.3812 54.7426C36.5629 54.7426 39.1512 57.3309 39.1512 60.5125C39.1512 63.6942 36.5629 66.2825 33.3812 66.2825Z" fill="#66CCFF"/>
<path d="M39.1508 60.5125C39.1508 57.3309 36.5625 54.7426 33.3809 54.7426V66.2825C36.5625 66.2825 39.1508 63.6942 39.1508 60.5125Z" fill="#59ABFF"/>
<path d="M39.1508 6.40352C39.1508 3.22186 36.5625 0.633606 33.3809 0.633606V12.1734C36.5625 12.1734 39.1508 9.58519 39.1508 6.40352Z" fill="#59ABFF"/>
<path d="M50.6918 33.458C50.6918 40.228 46.7681 46.1132 41.0752 48.9597L33.382 44.9978L25.6888 48.9597C19.9959 46.1132 16.0723 40.228 16.0723 33.458C16.0723 23.9183 23.8426 16.1483 33.382 16.1483C42.9215 16.1483 50.6918 23.9183 50.6918 33.458Z" fill="#59ABFF"/>
<path d="M41.0741 48.9597C46.7669 46.1132 50.6906 40.228 50.6906 33.458C50.6906 23.9183 42.9203 16.1483 33.3809 16.1483V44.9978L41.0741 48.9597Z" fill="#4D87FF"/>
<path d="M33.3812 35.3813C30.1996 35.3813 27.6113 32.7931 27.6113 29.6114C27.6113 26.4297 30.1996 23.8415 33.3812 23.8415C36.5629 23.8415 39.1512 26.4297 39.1512 29.6114C39.1512 32.7931 36.5629 35.3813 33.3812 35.3813Z" fill="#F3F5F9"/>
<path d="M33.3807 37.3046C29.1496 37.3046 25.6875 40.7664 25.6875 44.9979V48.9597C27.9953 50.1137 30.6113 50.7678 33.3807 50.7678C36.1502 50.7678 38.7661 50.1137 41.074 48.9597V44.9979C41.074 40.7664 37.6119 37.3046 33.3807 37.3046Z" fill="#F3F5F9"/>
<path d="M41.0741 48.9597V44.9979C41.0741 40.7664 37.612 37.3046 33.3809 37.3046V50.7678C36.1503 50.7678 38.7662 50.1137 41.0741 48.9597Z" fill="#E1E6F0"/>
<path d="M39.1508 29.6114C39.1508 26.4297 36.5625 23.8415 33.3809 23.8415V35.3813C36.5625 35.3813 39.1508 32.7931 39.1508 29.6114Z" fill="#E1E6F0"/>
</g>
<defs>
<clipPath id="clip0_3_603">
<rect width="65.6489" height="65.6489" fill="white" transform="translate(0.556641 0.633606)"/>
</clipPath>
</defs>
</svg>
