<svg width="74" height="74" viewBox="0 0 74 74" fill="none" xmlns="http://www.w3.org/2000/svg">
<g clip-path="url(#clip0_3_532)">
<path d="M65.6764 60.6904H18.4354V56.8992L13.2406 53.1401L6.00037 7.8739H58.6101L64.0544 12.295H68.0755V58.2911C68.0757 59.6162 67.0015 60.6904 65.6764 60.6904Z" fill="#F4FBFF"/>
<path d="M64.6378 12.295V58.2911C64.6378 59.6162 63.5637 60.6904 62.2385 60.6904H65.6766C67.0016 60.6904 68.0759 59.6162 68.0759 58.2911V12.295H64.6378Z" fill="#E4F6FF"/>
<path d="M68.0757 12.295H0.740459V5.85206C0.740459 4.52692 1.81462 3.45276 3.13976 3.45276H65.6765C67.0017 3.45276 68.0758 4.52692 68.0758 5.85206V12.295H68.0757Z" fill="#3B66C1"/>
<path d="M65.6766 3.45276H62.2385C63.5637 3.45276 64.6378 4.52692 64.6378 5.85206V12.2952H68.0759V5.85206C68.0759 4.52692 67.0017 3.45276 65.6766 3.45276Z" fill="#30579D"/>
<path d="M6.00094 8.96839H4.58852C3.984 8.96839 3.49422 8.47846 3.49422 7.87409C3.49422 7.26971 3.98415 6.77979 4.58852 6.77979H6.00094C6.60546 6.77979 7.09524 7.26971 7.09524 7.87409C7.09524 8.47846 6.60546 8.96839 6.00094 8.96839Z" fill="#ECBE6B"/>
<path d="M12.0537 8.96839H10.6413C10.0367 8.96839 9.54695 8.47846 9.54695 7.87409C9.54695 7.26971 10.0369 6.77979 10.6413 6.77979H12.0537C12.6582 6.77979 13.148 7.26971 13.148 7.87409C13.148 8.47846 12.658 8.96839 12.0537 8.96839Z" fill="#90D8F9"/>
<path d="M18.1063 8.96839H16.694C16.0895 8.96839 15.5997 8.47846 15.5997 7.87409C15.5997 7.26971 16.0896 6.77979 16.694 6.77979H18.1063C18.7108 6.77979 19.2006 7.26971 19.2006 7.87409C19.2006 8.47846 18.7108 8.96839 18.1063 8.96839Z" fill="#B3E59F"/>
<path d="M55.7056 34.8765C55.1175 34.8765 54.5973 34.503 54.4097 33.9451C54.4053 33.932 54.4012 33.9191 54.3972 33.9058L51.9242 25.5238L50.4157 33.8822C50.3083 34.4771 49.739 34.8719 49.1444 34.7648C48.5496 34.6573 48.1545 34.0882 48.2618 33.4935L50.3865 21.7217C50.5063 21.0997 51.0209 20.6449 51.64 20.6035C52.2591 20.5617 52.8299 20.9436 53.0277 21.5319C53.0321 21.545 53.0362 21.558 53.0402 21.5712L55.6922 30.5603L58.2512 21.5829C58.2549 21.57 58.2587 21.5576 58.2628 21.545C58.4545 20.9548 59.0182 20.5636 59.6407 20.602C60.2603 20.6369 60.7796 21.0862 60.9033 21.6943L63.1561 33.4823C63.2696 34.076 62.8803 34.6491 62.2867 34.7625C61.6938 34.8767 61.1199 34.4869 61.0065 33.8932L59.4056 25.5166L57.0177 33.8932C57.0142 33.9059 57.0104 33.9184 57.0063 33.931C56.8238 34.4933 56.304 34.8733 55.713 34.8764C55.7106 34.8765 55.7082 34.8765 55.7056 34.8765Z" fill="#30579D"/>
<path d="M30.4725 34.8768C26.5363 34.8768 23.3341 31.6746 23.3341 27.7385C23.3341 23.8025 26.5365 20.6001 30.4725 20.6001C31.9027 20.6001 33.2831 21.0219 34.4644 21.8199C34.9652 22.1581 35.0969 22.8384 34.7585 23.3392C34.4203 23.84 33.74 23.9716 33.2392 23.6334C32.4211 23.0808 31.4644 22.7886 30.4725 22.7886C27.7431 22.7886 25.5226 25.0091 25.5226 27.7385C25.5226 30.4678 27.7431 32.6882 30.4725 32.6882C31.503 32.6882 32.3742 32.3778 33.0619 31.7653C33.1956 31.6462 33.3235 31.5141 33.4422 31.3727C33.8305 30.9099 34.5209 30.8498 34.9839 31.2382C35.4467 31.6265 35.5069 32.317 35.1184 32.7799C34.9322 33.0017 34.7301 33.2102 34.5178 33.3994C33.4324 34.3661 32.0336 34.8768 30.4725 34.8768Z" fill="#30579D"/>
<path d="M42.1724 29.0318C44.325 28.7515 45.9899 26.9773 45.9899 24.8357C45.9899 22.5 44.01 20.5999 41.5763 20.5999H38.364C38.3633 20.5999 38.3627 20.6 38.362 20.6C38.3613 20.6 38.3607 20.5999 38.36 20.5999C37.7555 20.5999 37.2657 21.0898 37.2657 21.6941V33.7823C37.2657 34.3868 37.7556 34.8765 38.36 34.8765C38.9644 34.8765 39.4543 34.3866 39.4543 33.7823V29.2562L44.0741 34.5053C44.2904 34.7511 44.5925 34.8767 44.896 34.8767C45.1528 34.8767 45.4107 34.7867 45.6187 34.6038C46.0723 34.2045 46.1164 33.513 45.7171 33.0594L42.1724 29.0318ZM41.5763 22.7884C42.7823 22.7884 43.8012 23.726 43.8012 24.8357C43.8012 25.9455 42.7823 26.8829 41.5763 26.8829C41.0923 26.8829 40.1953 26.887 39.4742 26.8907C39.4704 26.1801 39.4639 23.529 39.4616 22.7884H41.5763Z" fill="#30579D"/>
<path d="M71.144 51.6683L72.4916 52.4785C72.9677 52.7647 73.259 53.2796 73.259 53.8351V56.8959C73.3324 58.4106 71.2244 58.5797 70.5888 59.6278L67.6037 64.7983C67.014 65.8725 67.9212 67.7833 66.573 68.4768L63.9221 70.0073C62.6471 70.8282 61.4466 69.0872 60.2212 69.0607H54.2509C53.0257 69.0871 51.8246 70.8283 50.5499 70.0073L47.8991 68.4768C46.5507 67.7829 47.4582 65.8729 46.8684 64.7983L43.8833 59.6278C43.2479 58.58 41.1394 58.4104 41.213 56.8959V53.8351C41.1397 52.3204 43.2476 52.1513 43.8833 51.1032L46.8684 45.9327C47.458 44.8585 46.5509 42.9477 47.8991 42.2543L50.5499 40.7237C51.8249 39.9028 53.0254 41.6438 54.2509 41.6703H60.2212C61.4463 41.644 62.6474 39.9027 63.9221 40.7237L66.573 42.2543C67.9213 42.9481 67.0139 44.8581 67.6037 45.9327L70.5888 51.1032C70.7229 51.3356 70.9141 51.5301 71.144 51.6683Z" fill="#90D8F9"/>
<path d="M72.4899 52.4786C72.037 52.162 70.8301 51.6316 70.5871 51.1033L67.602 45.9328C67.0123 44.8586 67.9197 42.9478 66.5713 42.2543L63.9204 40.7238C63.1169 40.1879 62.1751 40.7866 61.4707 41.2038L63.29 42.2542C64.6385 42.9481 63.7309 44.858 64.3207 45.9326L67.3058 51.1031C67.9412 52.151 70.0497 52.3205 69.9761 53.835V56.8959C70.0494 58.4105 67.9415 58.5796 67.3058 59.6277L64.3207 64.7983C63.9853 65.2668 64.1282 66.5901 64.0812 67.1339C64.1794 68.3739 62.2653 68.9779 61.4707 69.5271C62.1762 69.9447 63.1161 70.5427 63.9204 70.0071L66.5713 68.4765C67.9197 67.7827 67.0122 65.8727 67.602 64.7981L70.5871 59.6276C71.2224 58.5798 73.331 58.4101 73.2573 56.8957V53.8351C73.2573 53.2797 72.9661 52.7648 72.4899 52.4786Z" fill="#75CEF9"/>
<path d="M57.2358 64.4095C62.2307 64.4095 66.2799 60.3603 66.2799 55.3654C66.2799 50.3705 62.2307 46.3213 57.2358 46.3213C52.2408 46.3213 48.1916 50.3705 48.1916 55.3654C48.1916 60.3603 52.2408 64.4095 57.2358 64.4095Z" fill="#F4FBFF"/>
<path d="M57.2345 46.3213C56.6739 46.3213 56.1262 46.375 55.594 46.4726C59.8052 47.2447 62.9975 50.9311 62.9975 55.3654C62.9975 59.7997 59.8052 63.4862 55.594 64.2583C56.1262 64.3558 56.6741 64.4095 57.2345 64.4095C62.2294 64.4095 66.2787 60.3603 66.2787 55.3654C66.2787 50.3705 62.2294 46.3213 57.2345 46.3213Z" fill="#E4F6FF"/>
<path d="M18.4354 60.6904H3.13976C1.81462 60.6904 0.740459 59.6162 0.740459 58.2911V12.295H18.4354V60.6904Z" fill="#CBE2FF"/>
<path d="M12.2378 20.1094H6.9363C6.3318 20.1094 5.84203 19.6195 5.84203 19.0152C5.84203 18.4107 6.33194 17.9209 6.9363 17.9209H12.2378C12.8423 17.9209 13.3321 18.4108 13.3321 19.0152C13.3321 19.6195 12.8422 20.1094 12.2378 20.1094Z" fill="#E4F6FF"/>
<path d="M12.2378 26.8293H6.9363C6.3318 26.8293 5.84203 26.3394 5.84203 25.735C5.84203 25.1307 6.33194 24.6407 6.9363 24.6407H12.2378C12.8423 24.6407 13.3321 25.1307 13.3321 25.735C13.3321 26.3394 12.8422 26.8293 12.2378 26.8293Z" fill="#E4F6FF"/>
<path d="M12.2378 33.5495H6.9363C6.3318 33.5495 5.84203 33.0596 5.84203 32.4552C5.84203 31.8507 6.33194 31.361 6.9363 31.361H12.2378C12.8423 31.361 13.3321 31.8509 13.3321 32.4552C13.3321 33.0596 12.8422 33.5495 12.2378 33.5495Z" fill="#E4F6FF"/>
<path d="M12.2378 40.2695H6.9363C6.3318 40.2695 5.84203 39.7796 5.84203 39.1752C5.84203 38.5709 6.33194 38.0809 6.9363 38.0809H12.2378C12.8423 38.0809 13.3321 38.5709 13.3321 39.1752C13.3321 39.7796 12.8422 40.2695 12.2378 40.2695Z" fill="#E4F6FF"/>
<path d="M12.2378 46.9895H6.9363C6.3318 46.9895 5.84203 46.4995 5.84203 45.8952C5.84203 45.2907 6.33194 44.8009 6.9363 44.8009H12.2378C12.8423 44.8009 13.3321 45.2908 13.3321 45.8952C13.3321 46.4997 12.8422 46.9895 12.2378 46.9895Z" fill="#E4F6FF"/>
</g>
<defs>
<clipPath id="clip0_3_532">
<rect width="72.5191" height="72.5191" fill="white" transform="translate(0.740459 0.5802)"/>
</clipPath>
</defs>
</svg>
