<svg width="53" height="53" viewBox="0 0 53 53" fill="none" xmlns="http://www.w3.org/2000/svg">
<path d="M6.39856 0.509613C6.23472 0.52473 6.07858 0.586292 5.94846 0.687015C5.81835 0.787738 5.71966 0.923404 5.66397 1.07824C5.60828 1.23307 5.5979 1.40063 5.63405 1.56115C5.67019 1.72167 5.75137 1.86858 5.86805 1.9846L11.6733 7.78308V9.66684L9.58503 11.7552H7.70795L1.9027 5.94989C1.78152 5.82946 1.62739 5.74758 1.45975 5.71462C1.29211 5.68166 1.11847 5.69912 0.960715 5.76471C0.802961 5.8303 0.668159 5.94119 0.573308 6.08329C0.478457 6.22539 0.427804 6.39237 0.427734 6.56322V13.4853C0.429563 13.7132 0.521242 13.9311 0.682853 14.0918L5.00638 18.4204C5.08717 18.5003 5.18292 18.5635 5.28815 18.6065C5.39338 18.6494 5.50604 18.6712 5.61968 18.6705H12.1785L34.1627 40.6564V47.2203C34.163 47.3344 34.1858 47.4473 34.2299 47.5525C34.274 47.6578 34.3384 47.7534 34.4196 47.8336L38.7414 52.1571C38.8218 52.2379 38.9174 52.302 39.0226 52.3458C39.1279 52.3895 39.2407 52.4121 39.3547 52.4121H46.2767C46.4484 52.4121 46.6162 52.361 46.7587 52.2653C46.9012 52.1696 47.012 52.0336 47.0771 51.8747C47.1421 51.7159 47.1584 51.5412 47.1239 51.3731C47.0894 51.2049 47.0056 51.0508 46.8833 50.9304L41.0865 45.132V43.2549L43.173 41.1599H45.0518L50.8554 46.9652C50.9766 47.0856 51.1307 47.1675 51.2983 47.2004C51.466 47.2334 51.6396 47.2159 51.7974 47.1503C51.9551 47.0848 52.0899 46.9739 52.1848 46.8318C52.2796 46.6897 52.3303 46.5227 52.3303 46.3518V39.4366C52.3303 39.3226 52.3078 39.2097 52.264 39.1044C52.2202 38.9992 52.1561 38.9036 52.0752 38.8233L47.7517 34.493C47.5883 34.3322 47.3677 34.2428 47.1384 34.2445H40.5813L18.5953 12.2585V5.69467C18.5935 5.46677 18.5018 5.24882 18.3402 5.08813L14.0167 0.757856C13.8533 0.597028 13.6327 0.507694 13.4034 0.509414H6.48135C6.45377 0.508093 6.42614 0.508093 6.39856 0.509414L6.39856 0.509613Z" fill="#33658A"/>
<path d="M48.774 0.509293C48.6716 0.522371 48.5721 0.551412 48.4803 0.598492L39.8341 4.92158C39.5411 5.06773 39.3558 5.36681 39.3552 5.69425V8.79768L17.9824 30.1705L22.6631 34.8575L44.0359 13.4847H47.1393C47.4668 13.4842 47.7658 13.2987 47.912 13.0058L52.2415 4.35326C52.4058 4.02 52.339 3.61904 52.0754 3.3571L49.4829 0.758234C49.2968 0.571548 49.0359 0.479995 48.774 0.509093V0.509293Z" fill="#DBE9EE"/>
<path d="M16.853 28.1847C16.6272 28.1882 16.4118 28.2799 16.2527 28.44L2.26814 42.4246C-0.0775855 44.7704 -0.214715 48.5177 2.05103 50.7835C4.31678 53.0492 8.06413 52.912 10.4099 50.5663L24.3944 36.5818C24.5555 36.4197 24.6459 36.2004 24.6459 35.9719C24.6459 35.7434 24.5555 35.5242 24.3944 35.3621L17.4788 28.44C17.3969 28.3577 17.2994 28.2926 17.1918 28.2488C17.0843 28.2049 16.9691 28.1831 16.853 28.1847Z" fill="#33B9EF"/>
<path d="M13.6583 31.0362L21.7985 39.1764L24.3953 36.5814C24.5565 36.4193 24.6469 36.2 24.6469 35.9714C24.6469 35.7429 24.5565 35.5236 24.3953 35.3615L17.48 28.4395C17.398 28.357 17.3003 28.2919 17.1926 28.2481C17.0849 28.2043 16.9695 28.1826 16.8532 28.1844C16.6277 28.188 16.4125 28.2795 16.2534 28.4395L13.6583 31.0362Z" fill="#2FA9DA"/>
</svg>
