<svg width="63" height="63" viewBox="0 0 63 63" fill="none" xmlns="http://www.w3.org/2000/svg">
<g clip-path="url(#clip0_3_659)">
<path d="M58.6383 41.4962L15.5883 49.0872C12.9284 49.5561 10.3921 47.7801 9.92313 45.1204L5.18447 18.2463C4.71549 15.5865 6.49151 13.0502 9.15121 12.5812L52.2012 4.99027C54.861 4.52129 57.3974 6.29731 57.8663 8.95701L62.605 35.8311C63.0741 38.4908 61.2981 41.0273 58.6383 41.4962Z" fill="#3555A2"/>
<path d="M52.2008 4.99015L30.6758 8.7856L37.1127 45.2917L58.6377 41.4962C61.2975 41.0273 63.0735 38.4909 62.6044 35.8311L57.8658 8.95701C57.3969 6.29719 54.8606 4.52117 52.2008 4.99015Z" fill="#1B3555"/>
<path d="M47.7641 58.0009H4.97424C2.27346 58.0009 0.0839691 55.8114 0.0839691 53.1107V26.4932C0.0839691 23.7924 2.27346 21.6029 4.97424 21.6029H47.7641C50.4648 21.6029 52.6543 23.7924 52.6543 26.4932V53.1107C52.6543 55.8114 50.4648 58.0009 47.7641 58.0009Z" fill="#53D8E3"/>
<path d="M47.7641 21.6029H26.3692V58.0009H47.7641C50.4648 58.0009 52.6543 55.8114 52.6543 53.1107V26.4932C52.6543 23.7924 50.4648 21.6029 47.7641 21.6029Z" fill="#18A8C9"/>
<path d="M0.0839691 32.9972H52.4178V38.128H0.0839691V32.9972Z" fill="#ECF6FD"/>
<path d="M14.6436 49.9273H6.32407C5.31129 49.9273 4.49022 50.7484 4.49022 51.7612C4.49022 52.7739 5.31129 53.595 6.32407 53.595H14.6436C15.6564 53.595 16.4775 52.7739 16.4775 51.7612C16.4775 50.7484 15.6564 49.9273 14.6436 49.9273Z" fill="#EAF6FF"/>
<path d="M26.2519 32.9972H52.4189V38.128H26.2519V32.9972Z" fill="#D6E8FE"/>
<path d="M3.67577 30.2212V26.1464C3.67577 25.3958 4.28365 24.788 5.03417 24.788H9.10904C9.85955 24.788 10.4671 25.3958 10.4671 26.1464V30.2212C10.4671 30.9718 9.85955 31.5796 9.10904 31.5796H5.03417C4.28365 31.5796 3.67577 30.9718 3.67577 30.2212Z" fill="#FDB62F"/>
<path d="M3.67577 27.3348H6.22264V29.0328H3.67577V27.3348Z" fill="#FD7B2F"/>
<path d="M7.91991 27.3348H10.4665V29.0328H7.91991V27.3348Z" fill="#FD7B2F"/>
<path d="M49.3035 53.6647C52.4558 53.6647 55.0113 51.1092 55.0113 47.9569C55.0113 44.8046 52.4558 42.2491 49.3035 42.2491C46.1512 42.2491 43.5957 44.8046 43.5957 47.9569C43.5957 51.1092 46.1512 53.6647 49.3035 53.6647Z" fill="#FFCA5D"/>
<path d="M56.6414 52.0339C59.7937 52.0339 62.3492 49.4784 62.3492 46.3261C62.3492 43.1738 59.7937 40.6183 56.6414 40.6183C53.4891 40.6183 50.9336 43.1738 50.9336 46.3261C50.9336 49.4784 53.4891 52.0339 56.6414 52.0339Z" fill="#F6B545"/>
<path d="M56.6414 40.6183C53.4613 40.6183 50.9336 43.146 50.9336 46.3261C50.9336 49.5062 53.4613 52.0339 56.6414 52.0339C59.8214 52.0339 62.3492 49.5062 62.3492 46.3261C62.3492 43.146 59.8214 40.6183 56.6414 40.6183ZM56.6414 50.4031C54.3583 50.4031 52.5644 48.6092 52.5644 46.3261C52.5644 44.043 54.3583 42.2491 56.6414 42.2491C58.9245 42.2491 60.7184 44.043 60.7184 46.3261C60.7184 48.6092 58.9245 50.4031 56.6414 50.4031Z" fill="#FFCB5B"/>
<path d="M56.6426 51.9524C59.8226 52.0339 62.3504 49.4246 62.3504 46.3261H62.2688C61.8611 46.3261 61.5349 46.6523 61.4534 47.06C61.2904 48.2015 60.7196 49.2615 59.9042 49.9954C59.2519 50.6477 58.3549 51.0554 57.3764 51.2185C56.9687 51.2185 56.6426 51.5447 56.6426 51.9524Z" fill="#F6B545"/>
<path d="M56.6414 40.6999C53.4613 40.6183 50.9336 43.2276 50.9336 46.3261H51.0151C51.4228 46.3261 51.749 45.9999 51.8305 45.5922C51.9936 44.4507 52.5644 43.3907 53.3798 42.6568C54.0321 42.0045 54.929 41.5968 55.9075 41.4337C56.3152 41.4337 56.6414 41.1075 56.6414 40.6999Z" fill="#FFE27A"/>
<path d="M53.1352 46.8969C53.1352 44.6138 54.9291 42.8199 57.2122 42.8199C58.1907 42.8199 59.0876 43.1461 59.8214 43.7984C59.0061 42.8199 57.9461 42.2491 56.6414 42.2491C54.3583 42.2491 52.5644 44.043 52.5644 46.3261C52.5644 47.6308 53.1352 48.6908 54.0321 49.4246C53.4614 48.7723 53.1352 47.8754 53.1352 46.8969Z" fill="#F19920"/>
<path d="M59.0896 48.8539C59.0081 48.8539 58.9266 48.8539 58.845 48.7723C58.682 48.6093 58.682 48.3646 58.845 48.2016C59.3343 47.7123 59.5789 46.9785 59.5789 46.3261C59.5789 46.0815 59.7419 45.9185 59.9866 45.9185C60.2312 45.9185 60.3943 46.0815 60.3943 46.3261C60.3943 47.2231 60.0681 48.12 59.4973 48.7723C59.3343 48.8539 59.1711 48.8539 59.0896 48.8539Z" fill="#FFCB5B"/>
<path d="M56.6396 48.7723C56.1503 48.7723 55.8242 48.4461 55.8242 47.9569V44.6954C55.8242 44.2061 56.1504 43.88 56.6396 43.88C57.1288 43.88 57.4549 44.2062 57.4549 44.6954V47.9569C57.4549 48.4461 57.1288 48.7723 56.6396 48.7723Z" fill="#F19920"/>
<path d="M59.6569 51.1369C59.0862 49.0984 57.6184 47.4676 55.743 46.7338C55.4168 44.8584 54.1937 43.2276 52.6445 42.2491C51.666 43.3091 51.0137 44.6953 51.0137 46.2446C51.0137 49.4246 53.5414 51.9524 56.7215 51.9524C57.7815 52.0339 58.76 51.7078 59.6569 51.1369Z" fill="#F19920"/>
<path d="M54.0322 49.4246C53.4614 48.6908 53.0537 47.7938 53.0537 46.8154C53.0537 45.6738 53.5429 44.6138 54.3583 43.88C54.1953 43.6353 54.0321 43.4723 53.8691 43.3092C53.0537 44.0431 52.5644 45.1031 52.5644 46.3262C52.5645 47.6308 53.1353 48.6908 54.0322 49.4246Z" fill="#E78825"/>
<path d="M55.8242 46.8154V47.957C55.8242 48.4462 56.1504 48.7724 56.6396 48.7724C57.1288 48.7724 57.4549 48.4462 57.4549 47.957V47.7939C56.9658 47.3862 56.395 47.0601 55.8242 46.8154Z" fill="#E78825"/>
<path d="M59.6583 51.1369C59.4953 50.5662 59.3321 50.0769 59.006 49.5877C58.3537 50.0769 57.5383 50.4031 56.6414 50.4031C54.3583 50.4031 52.5644 48.6092 52.5644 46.3261C52.5644 45.1029 53.0536 44.0429 53.869 43.3091C53.4613 42.9014 53.0536 42.5752 52.5644 42.3306C51.5859 43.3906 50.9336 44.7768 50.9336 46.326C50.9336 49.5061 53.4613 52.0338 56.6414 52.0338C57.7829 52.0339 58.7614 51.7078 59.6583 51.1369Z" fill="#F6B545"/>
<path d="M59.4149 50.4031C58.8442 50.8108 58.1103 51.0554 57.3764 51.2185C56.9688 51.3001 56.6426 51.6262 56.6426 52.0339C57.7841 52.0339 58.7626 51.7077 59.6596 51.1369C59.5781 50.8923 59.4965 50.6478 59.4149 50.4031Z" fill="#F19920"/>
<path d="M52.5644 42.3306C51.5859 43.3906 50.9336 44.7768 50.9336 46.3261H51.0151C51.4228 46.3261 51.749 45.9999 51.8305 45.5922C51.9936 44.4506 52.5644 43.4721 53.2982 42.7383C53.0536 42.6567 52.809 42.4937 52.5644 42.3306Z" fill="#FFCB5B"/>
<path d="M49.3035 53.6647C52.4558 53.6647 55.0113 51.1092 55.0113 47.9569C55.0113 44.8046 52.4558 42.2491 49.3035 42.2491C46.1512 42.2491 43.5957 44.8046 43.5957 47.9569C43.5957 51.1092 46.1512 53.6647 49.3035 53.6647Z" fill="#F6B545"/>
<path d="M48.4883 52.0338C48.4883 52.6045 48.5698 53.0938 48.7329 53.6646C48.896 53.6646 49.1406 53.6646 49.3036 53.6646C52.4837 53.6646 55.0114 51.1369 55.0114 47.9568C55.0114 47.3861 54.9299 46.8968 54.7668 46.326C54.6038 46.326 54.3591 46.326 54.1961 46.326C51.016 46.3261 48.4883 48.8538 48.4883 52.0338Z" fill="#F19920"/>
<path d="M49.3035 42.2491C46.1234 42.2491 43.5957 44.7768 43.5957 47.9569C43.5957 51.137 46.1234 53.6647 49.3035 53.6647C52.4836 53.6647 55.0113 51.1369 55.0113 47.9569C55.0113 44.7769 52.4836 42.2491 49.3035 42.2491ZM49.3035 52.0338C47.0204 52.0338 45.2265 50.2399 45.2265 47.9568C45.2265 45.6737 47.0204 43.8798 49.3035 43.8798C51.5866 43.8798 53.3805 45.6737 53.3805 47.9568C53.3805 50.2399 51.5866 52.0338 49.3035 52.0338Z" fill="#FFCB5B"/>
<path d="M49.3027 53.5831C52.4828 53.6646 55.0105 51.0554 55.0105 47.9569H54.929C54.5213 47.9569 54.1951 48.2831 54.1136 48.6908C53.9505 49.8323 53.3797 50.8923 52.5643 51.6262C51.912 52.2785 51.0151 52.6862 50.0366 52.8493C49.6289 52.8493 49.3027 53.1754 49.3027 53.5831Z" fill="#F6B545"/>
<path d="M49.3035 42.3307C46.1234 42.2491 43.5957 44.8584 43.5957 47.9569H43.6773C44.0849 47.9569 44.4111 47.6307 44.4926 47.223C44.6557 46.0815 45.2265 45.0215 46.0419 44.2876C46.6942 43.6353 47.5911 43.2276 48.5696 43.0645C48.9774 43.0645 49.3035 42.7383 49.3035 42.3307Z" fill="#FFE27A"/>
<path d="M45.7976 48.5277C45.7976 46.2446 47.5915 44.4507 49.8746 44.4507C50.8531 44.4507 51.75 44.7769 52.4838 45.4292C51.6685 44.4507 50.6084 43.8799 49.3038 43.8799C47.0206 43.8799 45.2268 45.6738 45.2268 47.9569C45.2268 49.2616 45.7975 50.3216 46.6945 51.0554C46.1238 50.4031 45.7976 49.5062 45.7976 48.5277Z" fill="#F19920"/>
<path d="M51.7498 50.4846C51.6682 50.4846 51.5867 50.4846 51.5051 50.403C51.3421 50.2399 51.3421 49.9953 51.5051 49.8323C51.9944 49.343 52.239 48.6091 52.239 47.9568C52.239 47.7122 52.4021 47.5491 52.6467 47.5491C52.8913 47.5491 53.0544 47.7122 53.0544 47.9568C53.0544 48.8538 52.7282 49.7507 52.1575 50.403C51.9943 50.4846 51.8313 50.4846 51.7498 50.4846Z" fill="#FFCB5B"/>
<path d="M49.3036 50.403C48.8144 50.403 48.4883 50.0769 48.4883 49.5877V46.3261C48.4883 45.8369 48.8145 45.5107 49.3036 45.5107C49.7929 45.5107 50.119 45.8369 50.119 46.3261V49.5877C50.1191 50.0769 49.7929 50.403 49.3036 50.403Z" fill="#F19920"/>
<path d="M53.0545 46.4076C53.2175 46.8968 53.3807 47.3861 53.3807 47.9568C53.3807 50.2399 51.5868 52.0338 49.3037 52.0338C49.0591 52.0338 48.7329 52.0338 48.4883 51.9522V52.0338C48.4883 52.6045 48.5699 53.0938 48.7329 53.6646C48.896 53.6646 49.1406 53.6646 49.3037 53.6646C52.4837 53.6646 55.0115 51.1369 55.0115 47.9568C55.0115 47.3861 54.9299 46.8968 54.7669 46.326C54.6038 46.326 54.3592 46.326 54.1961 46.326C53.7883 46.3261 53.4622 46.3261 53.0545 46.4076Z" fill="#F6B545"/>
<path d="M53.3797 58.557C56.532 58.557 59.0875 56.0016 59.0875 52.8492C59.0875 49.6969 56.532 47.1414 53.3797 47.1414C50.2274 47.1414 47.6719 49.6969 47.6719 52.8492C47.6719 56.0016 50.2274 58.557 53.3797 58.557Z" fill="#F6B545"/>
<path d="M53.3816 47.1415C50.2016 47.1415 47.6738 49.6692 47.6738 52.8493C47.6738 56.0293 50.2016 58.5571 53.3816 58.5571C56.5617 58.5571 59.0894 56.0293 59.0894 52.8493C59.0894 49.6692 56.5617 47.1415 53.3816 47.1415ZM53.3816 56.9263C51.0985 56.9263 49.3046 55.1324 49.3046 52.8493C49.3046 50.5662 51.0985 48.7723 53.3816 48.7723C55.6647 48.7723 57.4586 50.5662 57.4586 52.8493C57.4586 55.1324 55.6647 56.9263 53.3816 56.9263Z" fill="#FFCB5B"/>
<path d="M53.3808 58.4755C56.5609 58.5571 59.0887 55.9478 59.0887 52.8493H59.0071C58.5994 52.8493 58.2732 53.1755 58.1917 53.5832C58.0287 54.7247 57.4578 55.7847 56.6425 56.5186C55.9902 57.1709 55.0932 57.5786 54.1147 57.7417C53.707 57.7417 53.3808 58.0678 53.3808 58.4755Z" fill="#F6B545"/>
<path d="M53.3816 47.2231C50.2016 47.1415 47.6738 49.7508 47.6738 52.8493H47.7554C48.1631 52.8493 48.4893 52.5231 48.5707 52.1154C48.7338 50.9739 49.3046 49.9139 50.12 49.18C50.7723 48.5277 51.6692 48.12 52.6477 47.9569C53.0555 47.9569 53.3816 47.6307 53.3816 47.2231Z" fill="#FFE27A"/>
<path d="M49.8735 53.42C49.8735 51.1369 51.6674 49.343 53.9505 49.343C54.929 49.343 55.826 49.6692 56.5598 50.3215C55.7444 49.343 54.6843 48.7723 53.3797 48.7723C51.0966 48.7723 49.3027 50.5662 49.3027 52.8493C49.3027 54.1539 49.8735 55.2139 50.7704 55.9478C50.1997 55.2955 49.8735 54.3985 49.8735 53.42Z" fill="#F19920"/>
<path d="M55.826 55.377C55.7444 55.377 55.6629 55.377 55.5814 55.2954C55.4183 55.1323 55.4183 54.8877 55.5814 54.7247C56.0706 54.2354 56.3152 53.5015 56.3152 52.8492C56.3152 52.6046 56.4783 52.4415 56.7229 52.4415C56.9675 52.4415 57.1306 52.6046 57.1306 52.8492C57.1306 53.7462 56.8044 54.6431 56.2337 55.2954C56.0706 55.377 55.9075 55.377 55.826 55.377Z" fill="#FFCB5B"/>
<path d="M53.3798 55.2955C52.8906 55.2955 52.5644 54.9693 52.5644 54.4801V51.2185C52.5644 50.7293 52.8906 50.4031 53.3798 50.4031C53.8691 50.4031 54.1952 50.7293 54.1952 51.2185V54.4801C54.1953 54.9693 53.8691 55.2955 53.3798 55.2955Z" fill="#F19920"/>
</g>
<defs>
<clipPath id="clip0_3_659">
<rect width="62.5954" height="62.5954" fill="white" transform="translate(0.0839691 0.160278)"/>
</clipPath>
</defs>
</svg>
