<svg width="57" height="57" viewBox="0 0 57 57" fill="none" xmlns="http://www.w3.org/2000/svg">
<g clip-path="url(#clip0_3_709)">
<path d="M47.9113 56.7023H8.85146C8.22368 56.7023 7.71484 56.1935 7.71484 55.5657V1.35036C7.71484 0.722583 8.22368 0.213745 8.85146 0.213745H47.9114C48.5392 0.213745 49.048 0.722583 49.048 1.35036V55.5657C49.0479 56.1935 48.5391 56.7023 47.9113 56.7023V56.7023Z" fill="#ECF4FF"/>
<path d="M8.8517 56.7023H47.9117C48.5393 56.7023 49.0483 56.1935 49.0483 55.5657V33.0389C45.0057 37.658 40.0068 42.0516 34.2112 45.8883C25.6503 51.5556 16.6503 55.1462 8.39471 56.606C8.53461 56.6676 8.68896 56.7023 8.8517 56.7023Z" fill="#CBE2FF"/>
<path d="M17.1292 15.9549V11.3507C13.8844 11.3507 11.2685 14.0426 11.3928 17.3151C11.5057 20.2905 13.9302 22.7149 16.9056 22.8279C20.1779 22.9522 22.87 20.3362 22.87 17.0915H18.2658C17.638 17.0915 17.1292 16.5825 17.1292 15.9549Z" fill="#E49542"/>
<path d="M17.1286 11.3507V15.9549C17.1286 16.5826 17.6374 17.0915 18.2652 17.0915H22.8694C22.8694 13.9209 20.2991 11.3507 17.1286 11.3507Z" fill="#C8EA73"/>
<path d="M19.1973 5.02443V6.42528C19.1973 7.05305 19.7061 7.56189 20.3339 7.56189H36.4309C37.0587 7.56189 37.5675 7.05305 37.5675 6.42528V5.02443C37.5675 4.39666 37.0587 3.88782 36.4309 3.88782H20.3339C19.7061 3.88782 19.1973 4.39666 19.1973 5.02443Z" fill="#4073C8"/>
<path d="M11.8477 50.0361V52.3463C11.8477 52.7229 12.153 53.0282 12.5297 53.0282H16.6768C17.0535 53.0282 17.3588 52.7229 17.3588 52.3463V50.0361C17.3588 49.6594 17.0535 49.3541 16.6768 49.3541H12.5297C12.1531 49.3541 11.8477 49.6595 11.8477 50.0361Z" fill="#4073C8"/>
<path d="M21.0334 44.5251V52.3463C21.0334 52.723 21.3387 53.0283 21.7153 53.0283H25.8625C26.2391 53.0283 26.5444 52.723 26.5444 52.3463V44.5251C26.5444 44.1484 26.2391 43.8431 25.8625 43.8431H21.7153C21.3388 43.8431 21.0334 44.1485 21.0334 44.5251Z" fill="#E49542"/>
<path d="M21.7144 53.0283H25.8616C26.2383 53.0283 26.5436 52.723 26.5436 52.3463V50.3622C24.7682 51.2658 22.9895 52.082 21.2168 52.8116C21.3413 52.9447 21.5179 53.0283 21.7144 53.0283Z" fill="#E28424"/>
<path d="M30.2169 37.6362V52.3463C30.2169 52.7229 30.5221 53.0282 30.8988 53.0282H35.046C35.4226 53.0282 35.7279 52.7229 35.7279 52.3463V37.6362C35.7279 37.2595 35.4226 36.9542 35.046 36.9542H30.8988C30.5222 36.9542 30.2169 37.2595 30.2169 37.6362Z" fill="#DD5790"/>
<path d="M35.7279 44.8545C35.2272 45.2028 34.7225 45.5485 34.2092 45.8882C32.8875 46.7632 31.5552 47.5878 30.2169 48.3636V52.3463C30.2169 52.7229 30.5221 53.0282 30.8988 53.0282H35.046C35.4226 53.0282 35.7279 52.7229 35.7279 52.3463V44.8545Z" fill="#DA387D"/>
<path d="M39.4024 33.0436V52.3463C39.4024 52.7229 39.7077 53.0282 40.0843 53.0282H44.2315C44.6082 53.0282 44.9135 52.7229 44.9135 52.3463V33.0436C44.9135 32.667 44.6082 32.3617 44.2315 32.3617H40.0843C39.7078 32.3617 39.4024 32.667 39.4024 33.0436Z" fill="#C8EA73"/>
<path d="M44.9135 37.3574C43.1976 39.0025 41.3584 40.6025 39.4024 42.1401V52.3462C39.4024 52.7229 39.7077 53.0281 40.0843 53.0281H44.2315C44.6082 53.0281 44.9135 52.7229 44.9135 52.3462V37.3574Z" fill="#B7E445"/>
<path d="M45.3742 12.2032H28.3818C27.9109 12.2032 27.5294 11.8216 27.5294 11.3508C27.5294 10.88 27.911 10.4984 28.3818 10.4984H45.3742C45.8451 10.4984 46.2266 10.88 46.2266 11.3508C46.2266 11.8215 45.8451 12.2032 45.3742 12.2032Z" fill="#9DC6FB"/>
<path d="M45.3742 16.0304H28.3818C27.9109 16.0304 27.5294 15.6487 27.5294 15.178C27.5294 14.7072 27.911 14.3256 28.3818 14.3256H45.3742C45.8451 14.3256 46.2266 14.7072 46.2266 15.178C46.2266 15.6487 45.8451 16.0304 45.3742 16.0304Z" fill="#9DC6FB"/>
<path d="M45.3742 19.8574H28.3818C27.9109 19.8574 27.5294 19.4758 27.5294 19.005C27.5294 18.5342 27.911 18.1526 28.3818 18.1526H45.3742C45.8451 18.1526 46.2266 18.5342 46.2266 19.005C46.2266 19.4758 45.8451 19.8574 45.3742 19.8574Z" fill="#9DC6FB"/>
<path d="M38.4854 23.6845H28.3818C27.9109 23.6845 27.5294 23.3029 27.5294 22.8321C27.5294 22.3614 27.911 21.9797 28.3818 21.9797H38.4854C38.9563 21.9797 39.3378 22.3614 39.3378 22.8321C39.3379 23.3029 38.9563 23.6845 38.4854 23.6845Z" fill="#9DC6FB"/>
<path d="M28.3816 29.3104H12.8817C12.4108 29.3104 12.0293 28.9288 12.0293 28.458C12.0293 27.9872 12.4109 27.6056 12.8817 27.6056H28.3816C28.8525 27.6056 29.234 27.9872 29.234 28.458C29.234 28.9288 28.8525 29.3104 28.3816 29.3104Z" fill="#9DC6FB"/>
<path d="M28.3816 33.1375H12.8817C12.4108 33.1375 12.0293 32.7559 12.0293 32.2851C12.0293 31.8144 12.4109 31.4327 12.8817 31.4327H28.3816C28.8525 31.4327 29.234 31.8144 29.234 32.2851C29.234 32.7559 28.8525 33.1375 28.3816 33.1375Z" fill="#9DC6FB"/>
<path d="M21.4928 36.9647H12.8817C12.4108 36.9647 12.0293 36.5831 12.0293 36.1123C12.0293 35.6415 12.4109 35.2599 12.8817 35.2599H21.4928C21.9637 35.2599 22.3452 35.6415 22.3452 36.1123C22.3453 36.5831 21.9637 36.9647 21.4928 36.9647Z" fill="#9DC6FB"/>
</g>
<defs>
<clipPath id="clip0_3_709">
<rect width="56.4885" height="56.4885" fill="white" transform="translate(0.136719 0.213745)"/>
</clipPath>
</defs>
</svg>
