<svg width="67" height="67" viewBox="0 0 67 67" fill="none" xmlns="http://www.w3.org/2000/svg">
<g clip-path="url(#clip0_3_506)">
<path fill-rule="evenodd" clip-rule="evenodd" d="M0.585938 16.05L35.3866 19.412L66.1742 16.05V6.38819C66.1742 4.69207 64.7961 3.29883 63.0849 3.29883H3.6753C1.96403 3.29883 0.585938 4.69207 0.585938 6.38819V16.05Z" fill="#2E9CF5"/>
<path fill-rule="evenodd" clip-rule="evenodd" d="M63.1303 49.3212C-11.0294 49.3212 27.9964 49.3212 3.6753 49.3212C1.96403 49.3212 0.585938 47.9431 0.585938 46.2318V6.38818V16.05H66.1742V46.1712C66.2348 47.9431 64.8416 49.3212 63.1303 49.3212Z" fill="#D9F2F2"/>
<path fill-rule="evenodd" clip-rule="evenodd" d="M12.5801 49.4272V49.4121V49.3818V36.252V23.1071C12.5801 22.5013 13.0647 22.0167 13.6553 22.0167H53.1506C53.7564 22.0167 54.241 22.5013 54.241 23.1071V36.252C54.241 36.3732 54.2107 36.4943 54.1804 36.6003V49.4423V61.6181C54.1804 62.769 53.2718 63.6171 52.1814 63.6171H14.5639C13.4887 63.6171 12.5801 62.7084 12.5801 61.6181V49.4423V49.4272Z" fill="#55ACEE"/>
<path fill-rule="evenodd" clip-rule="evenodd" d="M19.7581 32.3146C17.7591 32.3146 16.0781 30.6336 16.0781 28.6497C16.0781 26.6507 17.7591 24.9092 19.7581 24.9092C21.8025 24.9092 23.4229 26.5902 23.4229 28.5891C23.4229 30.573 21.8025 32.3146 19.7581 32.3146Z" fill="#7ED63F"/>
<path fill-rule="evenodd" clip-rule="evenodd" d="M27.8908 32.3146C25.907 32.3146 24.2109 30.6336 24.2109 28.6497C24.2109 26.6507 25.907 24.9092 27.8908 24.9092C29.9353 24.9092 31.5708 26.5902 31.5708 28.5891C31.5708 30.573 29.9353 32.3146 27.8908 32.3146Z" fill="#7ED63F"/>
<path fill-rule="evenodd" clip-rule="evenodd" d="M49.652 29.6644H36.2042C35.5984 29.6644 35.129 29.1798 35.129 28.5891C35.129 27.9834 35.5984 27.4988 36.2042 27.4988H49.652C50.2577 27.4988 50.7423 27.9834 50.7423 28.5891C50.7423 29.1798 50.1972 29.6644 49.652 29.6644Z" fill="white"/>
<path fill-rule="evenodd" clip-rule="evenodd" d="M19.7581 46.8225C17.7591 46.8225 16.0781 45.1263 16.0781 43.1425C16.0781 41.1586 17.6985 39.4625 19.7581 39.4625C21.8025 39.4625 23.4229 41.1586 23.4229 43.1425C23.4229 45.1263 21.8025 46.8225 19.7581 46.8225Z" fill="#7ED63F"/>
<path fill-rule="evenodd" clip-rule="evenodd" d="M27.8908 46.8225C25.907 46.8225 24.2109 45.1263 24.2109 43.1425C24.2109 41.1586 25.8464 39.4625 27.8908 39.4625C29.9353 39.4625 31.5708 41.1586 31.5708 43.1425C31.5708 45.1263 29.9353 46.8225 27.8908 46.8225Z" fill="#7ED63F"/>
<path fill-rule="evenodd" clip-rule="evenodd" d="M49.652 44.1723H36.2042C35.5984 44.1723 35.129 43.6877 35.129 43.0819C35.129 42.4762 35.5984 41.9916 36.2042 41.9916H49.652C50.2577 41.9916 50.7423 42.4762 50.7423 43.0819C50.7423 43.6877 50.1972 44.1723 49.652 44.1723Z" fill="white"/>
<path fill-rule="evenodd" clip-rule="evenodd" d="M19.7581 60.6943C17.7591 60.6943 16.0781 59.0133 16.0781 57.0143C16.0781 55.0305 17.6985 53.3344 19.7581 53.3344C21.8025 53.3344 23.4229 54.9699 23.4229 57.0143C23.4835 59.0133 21.8025 60.6943 19.7581 60.6943Z" fill="#7ED63F"/>
<path fill-rule="evenodd" clip-rule="evenodd" d="M27.8908 60.6943C25.907 60.6943 24.2109 59.0133 24.2109 57.0143C24.2109 55.0305 25.8464 53.3344 27.8908 53.3344C29.9353 53.3344 31.5708 54.9699 31.5708 57.0143C31.6314 59.0133 29.9353 60.6943 27.8908 60.6943Z" fill="#7ED63F"/>
<path fill-rule="evenodd" clip-rule="evenodd" d="M49.652 58.0441H36.2042C35.5984 58.0441 35.129 57.5595 35.129 56.9538C35.129 56.348 35.5984 55.8785 36.2042 55.8785H49.652C50.2577 55.8785 50.7423 56.348 50.7423 56.9538C50.7423 57.5595 50.1972 58.0441 49.652 58.0441Z" fill="white"/>
<path fill-rule="evenodd" clip-rule="evenodd" d="M12.5801 50.1087V50.0784V49.0637H54.1804V50.1389V50.4267H12.5801V50.1389V50.1087Z" fill="#458CC1"/>
<path fill-rule="evenodd" clip-rule="evenodd" d="M12.5801 36.2671V36.2368V35.207H54.1804V36.2974V36.57H12.5801V36.2974V36.2671Z" fill="#458CC1"/>
<path fill-rule="evenodd" clip-rule="evenodd" d="M9.53487 13.1878C7.62674 13.1878 6.02148 11.5977 6.02148 9.6744C6.02148 7.75112 7.56616 6.16101 9.53487 6.16101C11.5187 6.16101 13.0634 7.75112 13.0634 9.6744C13.0634 11.5977 11.5187 13.1878 9.53487 13.1878Z" fill="#378B4E"/>
<path fill-rule="evenodd" clip-rule="evenodd" d="M18.82 13.1878C16.8513 13.1878 15.3066 11.5977 15.3066 9.6744C15.3066 7.75112 16.8968 6.16101 18.82 6.16101C20.7433 6.16101 22.3334 7.75112 22.3334 9.6744C22.3334 11.5977 20.7433 13.1878 18.82 13.1878Z" fill="#FCBE37"/>
<path fill-rule="evenodd" clip-rule="evenodd" d="M28.0427 13.1878C26.074 13.1878 24.5293 11.5977 24.5293 9.6744C24.5293 7.75112 26.1346 6.16101 28.0427 6.16101C29.966 6.16101 31.5712 7.75112 31.5712 9.6744C31.5712 11.5977 29.966 13.1878 28.0427 13.1878Z" fill="#FF5100"/>
<path fill-rule="evenodd" clip-rule="evenodd" d="M59.8284 10.5831H38.6118C38.0666 10.5831 37.6426 10.159 37.6426 9.61386C37.6426 9.08382 38.0666 8.65979 38.6118 8.65979H59.8284C60.3584 8.65979 60.7825 9.08382 60.7825 9.61386C60.7825 10.159 60.313 10.5831 59.8284 10.5831Z" fill="#67B7F8"/>
</g>
<defs>
<clipPath id="clip0_3_506">
<rect width="65.6489" height="65.6489" fill="white" transform="translate(0.556641 0.633545)"/>
</clipPath>
</defs>
</svg>
